<?xml version="1.0" encoding="utf-8"?>
<!-- Generator: Adobe Illustrator 25.3.1, SVG Export Plug-In . SVG Version: 6.00 Build 0)  -->
<svg version="1.2" baseProfile="tiny" id="g-index-desktop-img" xmlns="http://www.w3.org/2000/svg" xmlns:xlink="http://www.w3.org/1999/xlink"
	 x="0px" y="0px" viewBox="0 0 1025 927.576" overflow="visible" xml:space="preserve">
<g>
	<g>
		<path fill="#FFFF00" d="M327.182,180.642h25.359c5.719,0,10.078,0.438,13.078,1.312c4.031,1.188,7.484,3.297,10.359,6.328
			c2.875,3.031,5.062,6.742,6.562,11.133s2.25,9.805,2.25,16.242c0,5.656-0.703,10.531-2.109,14.625
			c-1.719,5-4.172,9.047-7.359,12.141c-2.407,2.344-5.657,4.172-9.75,5.484c-3.063,0.969-7.157,1.453-12.281,1.453h-26.109V180.642z
			 M341.057,192.267v45.516h10.359c3.875,0,6.671-0.219,8.391-0.656c2.25-0.562,4.117-1.516,5.602-2.859
			c1.484-1.344,2.695-3.555,3.633-6.633s1.406-7.273,1.406-12.586s-0.469-9.391-1.406-12.234s-2.25-5.062-3.938-6.656
			s-3.829-2.672-6.422-3.234c-1.938-0.438-5.735-0.656-11.391-0.656H341.057z"/>
		<path fill="#FFFF00" d="M426.252,233.517l13.125,2.203c-1.688,4.812-4.352,8.477-7.992,10.992
			c-3.641,2.516-8.196,3.773-13.664,3.773c-8.657,0-15.063-2.828-19.219-8.484c-3.281-4.531-4.922-10.25-4.922-17.156
			c0-8.25,2.156-14.711,6.469-19.383s9.765-7.008,16.359-7.008c7.406,0,13.25,2.445,17.531,7.336
			c4.281,4.891,6.328,12.383,6.141,22.477h-33c0.094,3.906,1.156,6.945,3.188,9.117c2.031,2.172,4.562,3.258,7.594,3.258
			c2.062,0,3.797-0.562,5.203-1.688S425.533,236.017,426.252,233.517z M427.002,220.204c-0.094-3.812-1.078-6.711-2.953-8.695
			s-4.157-2.977-6.844-2.977c-2.875,0-5.25,1.047-7.125,3.141s-2.797,4.938-2.766,8.531H427.002z"/>
		<path fill="#FFFF00" d="M447.134,235.157l13.219-2.016c0.562,2.562,1.703,4.508,3.422,5.836c1.718,1.328,4.125,1.992,7.219,1.992
			c3.406,0,5.968-0.625,7.688-1.875c1.156-0.875,1.734-2.047,1.734-3.516c0-1-0.313-1.828-0.938-2.484
			c-0.656-0.625-2.125-1.203-4.406-1.734c-10.625-2.344-17.36-4.484-20.203-6.422c-3.938-2.688-5.906-6.422-5.906-11.203
			c0-4.312,1.703-7.938,5.109-10.875c3.406-2.938,8.687-4.406,15.844-4.406c6.812,0,11.875,1.109,15.188,3.328
			c3.312,2.219,5.593,5.5,6.844,9.844l-12.422,2.297c-0.532-1.938-1.54-3.422-3.023-4.453c-1.485-1.031-3.602-1.547-6.352-1.547
			c-3.469,0-5.953,0.484-7.453,1.453c-1,0.688-1.5,1.578-1.5,2.672c0,0.938,0.437,1.734,1.312,2.391
			c1.187,0.875,5.289,2.109,12.305,3.703c7.015,1.594,11.914,3.547,14.695,5.859c2.75,2.344,4.125,5.609,4.125,9.797
			c0,4.562-1.907,8.484-5.719,11.766c-3.813,3.281-9.454,4.922-16.922,4.922c-6.782,0-12.149-1.375-16.102-4.125
			C450.938,243.611,448.352,239.876,447.134,235.157z"/>
		<path fill="#FFFF00" d="M505.656,249.361v-68.719h13.172v36.469l15.422-17.531h16.219l-17.016,18.188l18.234,31.594h-14.203
			l-12.516-22.359l-6.141,6.422v15.938H505.656z"/>
		<path fill="#FFFF00" d="M583.304,199.579v10.5h-9v20.062c0,4.062,0.085,6.43,0.258,7.102c0.171,0.672,0.562,1.227,1.172,1.664
			s1.351,0.656,2.227,0.656c1.219,0,2.983-0.422,5.297-1.266l1.125,10.219c-3.063,1.312-6.532,1.969-10.406,1.969
			c-2.375,0-4.517-0.398-6.422-1.195c-1.907-0.797-3.305-1.828-4.195-3.094s-1.508-2.977-1.852-5.133
			c-0.281-1.531-0.422-4.625-0.422-9.281v-21.703h-6.047v-10.5h6.047v-9.891l13.219-7.688v17.578H583.304z"/>
		<path fill="#FFFF00" d="M590.358,223.767c0-4.375,1.078-8.609,3.234-12.703s5.21-7.219,9.164-9.375
			c3.953-2.156,8.367-3.234,13.242-3.234c7.53,0,13.703,2.445,18.516,7.336c4.812,4.891,7.219,11.07,7.219,18.539
			c0,7.531-2.431,13.773-7.289,18.727c-4.86,4.953-10.977,7.43-18.352,7.43c-4.563,0-8.915-1.031-13.055-3.094
			c-4.142-2.062-7.289-5.086-9.445-9.07S590.358,229.486,590.358,223.767z M603.858,224.47c0,4.938,1.172,8.719,3.516,11.344
			s5.233,3.938,8.672,3.938c3.437,0,6.32-1.312,8.648-3.938c2.327-2.625,3.492-6.438,3.492-11.438c0-4.875-1.165-8.625-3.492-11.25
			c-2.329-2.625-5.211-3.938-8.648-3.938c-3.438,0-6.328,1.312-8.672,3.938S603.858,219.532,603.858,224.47z"/>
		<path fill="#FFFF00" d="M652.63,199.579h12.281v7.312c1.594-2.5,3.75-4.531,6.469-6.094s5.734-2.344,9.047-2.344
			c5.781,0,10.688,2.266,14.719,6.797s6.047,10.844,6.047,18.938c0,8.312-2.032,14.773-6.094,19.383
			c-4.063,4.609-8.985,6.914-14.766,6.914c-2.75,0-5.243-0.547-7.477-1.641c-2.235-1.094-4.587-2.969-7.055-5.625v25.078H652.63
			V199.579z M665.661,223.626c0,5.594,1.108,9.727,3.328,12.398c2.218,2.672,4.922,4.008,8.109,4.008
			c3.062,0,5.608-1.227,7.641-3.68c2.031-2.453,3.047-6.477,3.047-12.07c0-5.219-1.048-9.094-3.141-11.625
			c-2.094-2.531-4.688-3.797-7.781-3.797c-3.219,0-5.891,1.242-8.016,3.727C666.723,215.071,665.661,218.751,665.661,223.626z"/>
	</g>
</g>
<style>
#g-index-desktop-img rect, #g-index-desktop-img circle, #g-index-desktop-img path, #g-index-desktop-img line, #g-index-desktop-img polyline { vector-effect: non-scaling-stroke; }
</style>
</svg>

