<?xml version="1.0" encoding="utf-8"?>
<!-- Generator: Adobe Illustrator 25.3.1, SVG Export Plug-In . SVG Version: 6.00 Build 0)  -->
<svg version="1.2" baseProfile="tiny" id="g-index-laptop-img" xmlns="http://www.w3.org/2000/svg" xmlns:xlink="http://www.w3.org/1999/xlink"
	 x="0px" y="0px" viewBox="0 0 769 1104.63" overflow="visible" xml:space="preserve">
<g>
	<g>
		<path fill="#FFFF00" d="M219.152,249.838v-68.156h13.875v56.578h34.5v11.578H219.152z"/>
		<path fill="#FFFF00" d="M288.128,215.245l-11.953-2.156c1.343-4.812,3.656-8.375,6.938-10.688s8.156-3.469,14.625-3.469
			c5.875,0,10.25,0.695,13.125,2.086c2.875,1.391,4.898,3.156,6.07,5.297s1.758,6.07,1.758,11.789l-0.141,15.375
			c0,4.375,0.211,7.602,0.633,9.68s1.21,4.305,2.367,6.68h-13.031c-0.344-0.875-0.766-2.172-1.266-3.891
			c-0.219-0.781-0.375-1.297-0.469-1.547c-2.25,2.188-4.657,3.828-7.219,4.922c-2.563,1.094-5.297,1.641-8.203,1.641
			c-5.125,0-9.164-1.391-12.117-4.172s-4.43-6.297-4.43-10.547c0-2.812,0.671-5.32,2.016-7.523c1.343-2.203,3.226-3.891,5.648-5.062
			c2.421-1.172,5.914-2.195,10.477-3.07c6.156-1.156,10.421-2.234,12.797-3.234v-1.312c0-2.531-0.625-4.336-1.875-5.414
			c-1.25-1.078-3.609-1.617-7.078-1.617c-2.344,0-4.172,0.461-5.484,1.383S288.94,212.932,288.128,215.245z M305.753,225.932
			c-1.688,0.562-4.359,1.234-8.016,2.016s-6.047,1.547-7.172,2.297c-1.719,1.219-2.578,2.766-2.578,4.641
			c0,1.844,0.687,3.438,2.062,4.781c1.375,1.344,3.125,2.016,5.25,2.016c2.375,0,4.641-0.781,6.797-2.344
			c1.594-1.188,2.64-2.641,3.141-4.359c0.343-1.125,0.516-3.266,0.516-6.422V225.932z"/>
		<path fill="#FFFF00" d="M332.259,200.057h12.281v7.312c1.594-2.5,3.75-4.531,6.469-6.094s5.734-2.344,9.047-2.344
			c5.781,0,10.688,2.266,14.719,6.797s6.047,10.844,6.047,18.938c0,8.312-2.032,14.773-6.094,19.383
			c-4.063,4.609-8.985,6.914-14.766,6.914c-2.75,0-5.243-0.547-7.477-1.641c-2.235-1.094-4.586-2.969-7.055-5.625v25.078h-13.172
			V200.057z M345.291,224.104c0,5.594,1.109,9.727,3.328,12.398c2.218,2.672,4.922,4.008,8.109,4.008
			c3.062,0,5.609-1.227,7.641-3.68c2.031-2.453,3.047-6.477,3.047-12.07c0-5.219-1.047-9.094-3.141-11.625
			c-2.094-2.531-4.688-3.797-7.781-3.797c-3.219,0-5.891,1.242-8.016,3.727C346.353,215.549,345.291,219.229,345.291,224.104z"/>
		<path fill="#FFFF00" d="M415.063,200.057v10.5h-9v20.062c0,4.062,0.085,6.43,0.258,7.102c0.171,0.672,0.562,1.227,1.172,1.664
			s1.351,0.656,2.227,0.656c1.219,0,2.984-0.422,5.297-1.266l1.125,10.219c-3.063,1.312-6.532,1.969-10.406,1.969
			c-2.375,0-4.516-0.398-6.422-1.195c-1.907-0.797-3.305-1.828-4.195-3.094s-1.508-2.977-1.852-5.133
			c-0.281-1.531-0.422-4.625-0.422-9.281v-21.703h-6.047v-10.5h6.047v-9.891l13.219-7.688v17.578H415.063z"/>
		<path fill="#FFFF00" d="M422.117,224.245c0-4.375,1.078-8.609,3.234-12.703s5.21-7.219,9.164-9.375
			c3.953-2.156,8.367-3.234,13.242-3.234c7.531,0,13.703,2.445,18.516,7.336c4.812,4.891,7.219,11.07,7.219,18.539
			c0,7.531-2.43,13.773-7.289,18.727c-4.859,4.953-10.977,7.43-18.352,7.43c-4.563,0-8.914-1.031-13.055-3.094
			c-4.141-2.062-7.289-5.086-9.445-9.07S422.117,229.963,422.117,224.245z M435.617,224.948c0,4.938,1.172,8.719,3.516,11.344
			s5.234,3.938,8.672,3.938c3.438,0,6.32-1.312,8.648-3.938c2.328-2.625,3.492-6.438,3.492-11.438c0-4.875-1.165-8.625-3.492-11.25
			c-2.328-2.625-5.211-3.938-8.648-3.938c-3.438,0-6.328,1.312-8.672,3.938S435.617,220.01,435.617,224.948z"/>
		<path fill="#FFFF00" d="M484.389,200.057h12.281v7.312c1.594-2.5,3.75-4.531,6.469-6.094s5.734-2.344,9.047-2.344
			c5.781,0,10.688,2.266,14.719,6.797s6.047,10.844,6.047,18.938c0,8.312-2.032,14.773-6.094,19.383
			c-4.062,4.609-8.984,6.914-14.766,6.914c-2.75,0-5.243-0.547-7.477-1.641c-2.234-1.094-4.586-2.969-7.055-5.625v25.078h-13.172
			V200.057z M497.42,224.104c0,5.594,1.109,9.727,3.328,12.398c2.219,2.672,4.922,4.008,8.109,4.008c3.062,0,5.609-1.227,7.641-3.68
			c2.031-2.453,3.047-6.477,3.047-12.07c0-5.219-1.047-9.094-3.141-11.625c-2.094-2.531-4.688-3.797-7.781-3.797
			c-3.219,0-5.891,1.242-8.016,3.727C498.482,215.549,497.42,219.229,497.42,224.104z"/>
	</g>
</g>
<style>
#g-index-laptop-img rect, #g-index-laptop-img circle, #g-index-laptop-img path, #g-index-laptop-img line, #g-index-laptop-img polyline { vector-effect: non-scaling-stroke; }
</style>
</svg>

