<?xml version="1.0" encoding="utf-8"?>
<!-- Generator: Adobe Illustrator 25.3.1, SVG Export Plug-In . SVG Version: 6.00 Build 0)  -->
<svg version="1.2" baseProfile="tiny" id="g-index-tablet-img" xmlns="http://www.w3.org/2000/svg" xmlns:xlink="http://www.w3.org/1999/xlink"
	 x="0px" y="0px" viewBox="0 0 480.424 1591.967" overflow="visible" xml:space="preserve">
<g>
	<g>
		<path fill="#FFFF00" d="M110.514,249.84v-57.094H90.124v-11.625h54.609v11.625h-20.344v57.094H110.514z"/>
		<path fill="#FFFF00" d="M157.271,215.246l-11.953-2.156c1.343-4.812,3.656-8.375,6.938-10.688s8.156-3.469,14.625-3.469
			c5.875,0,10.25,0.695,13.125,2.086c2.875,1.391,4.898,3.156,6.07,5.297s1.758,6.07,1.758,11.789l-0.141,15.375
			c0,4.375,0.211,7.602,0.633,9.68s1.211,4.305,2.367,6.68h-13.031c-0.344-0.875-0.766-2.172-1.266-3.891
			c-0.219-0.781-0.375-1.297-0.469-1.547c-2.25,2.188-4.657,3.828-7.219,4.922c-2.563,1.094-5.297,1.641-8.203,1.641
			c-5.125,0-9.164-1.391-12.117-4.172s-4.43-6.297-4.43-10.547c0-2.812,0.672-5.32,2.016-7.523c1.343-2.203,3.226-3.891,5.648-5.062
			c2.421-1.172,5.914-2.195,10.477-3.07c6.156-1.156,10.422-2.234,12.797-3.234v-1.312c0-2.531-0.625-4.336-1.875-5.414
			c-1.25-1.078-3.609-1.617-7.078-1.617c-2.344,0-4.172,0.461-5.484,1.383S158.083,212.933,157.271,215.246z M174.896,225.933
			c-1.688,0.562-4.359,1.234-8.016,2.016s-6.047,1.547-7.172,2.297c-1.719,1.219-2.578,2.766-2.578,4.641
			c0,1.844,0.687,3.438,2.062,4.781c1.375,1.344,3.125,2.016,5.25,2.016c2.375,0,4.641-0.781,6.797-2.344
			c1.594-1.188,2.64-2.641,3.141-4.359c0.344-1.125,0.516-3.266,0.516-6.422V225.933z"/>
		<path fill="#FFFF00" d="M201.215,249.84v-68.719h13.172v24.75c4.062-4.625,8.875-6.938,14.438-6.938
			c6.062,0,11.078,2.195,15.047,6.586c3.968,4.391,5.953,10.695,5.953,18.914c0,8.5-2.024,15.047-6.07,19.641
			c-4.047,4.594-8.961,6.891-14.742,6.891c-2.844,0-5.648-0.711-8.414-2.133s-5.149-3.523-7.148-6.305v7.312H201.215z
			 M214.293,223.871c0,5.156,0.812,8.969,2.438,11.438c2.281,3.5,5.312,5.25,9.094,5.25c2.906,0,5.383-1.242,7.43-3.727
			c2.046-2.484,3.07-6.398,3.07-11.742c0-5.688-1.031-9.789-3.094-12.305s-4.704-3.773-7.922-3.773c-3.157,0-5.782,1.227-7.875,3.68
			C215.34,215.144,214.293,218.871,214.293,223.871z"/>
		<path fill="#FFFF00" d="M261.378,249.84v-68.719h13.172v68.719H261.378z"/>
		<path fill="#FFFF00" d="M317.839,233.996l13.125,2.203c-1.688,4.812-4.352,8.477-7.992,10.992
			c-3.641,2.516-8.196,3.773-13.664,3.773c-8.656,0-15.063-2.828-19.219-8.484c-3.281-4.531-4.922-10.25-4.922-17.156
			c0-8.25,2.156-14.711,6.469-19.383s9.765-7.008,16.359-7.008c7.406,0,13.25,2.445,17.531,7.336
			c4.281,4.891,6.328,12.383,6.141,22.477h-33c0.094,3.906,1.156,6.945,3.188,9.117c2.031,2.172,4.562,3.258,7.594,3.258
			c2.062,0,3.797-0.562,5.203-1.688S317.119,236.496,317.839,233.996z M318.589,220.683c-0.094-3.812-1.078-6.711-2.953-8.695
			s-4.156-2.977-6.844-2.977c-2.875,0-5.25,1.047-7.125,3.141s-2.797,4.938-2.766,8.531H318.589z"/>
		<path fill="#FFFF00" d="M366.189,200.058v10.5h-9v20.062c0,4.062,0.086,6.43,0.258,7.102c0.171,0.672,0.562,1.227,1.172,1.664
			s1.351,0.656,2.227,0.656c1.219,0,2.984-0.422,5.297-1.266l1.125,10.219c-3.063,1.312-6.532,1.969-10.406,1.969
			c-2.375,0-4.516-0.398-6.422-1.195c-1.906-0.797-3.305-1.828-4.195-3.094s-1.508-2.977-1.852-5.133
			c-0.281-1.531-0.422-4.625-0.422-9.281v-21.703h-6.047v-10.5h6.047v-9.891l13.219-7.688v17.578H366.189z"/>
	</g>
</g>
<style>
#g-index-tablet-img rect, #g-index-tablet-img circle, #g-index-tablet-img path, #g-index-tablet-img line, #g-index-tablet-img polyline { vector-effect: non-scaling-stroke; }
</style>
</svg>

